# xmcd
#
# Track frame offsets: 
#        150
#        12094
#        24503
#        38321
#        50423
#        66035
#        76917
#        89535
#        102796
#        113287
#        127515
#        141081
#        159987
#        170107
#        182375
#        193533
#        205788
#        217359
#        229716
#        242501
#        256372
#        269561
#        282176
#        293199
#
# Disc length: 4099 seconds
#
# Revision: 0
# Processed by: cddbd v1.5.2PL0 Copyright (c) Steve Scherf et al.
# Submitted via: ExactAudioCopy v1.0b1
#
DISCID=3e100118
DTITLE=Various Artist - Cool Daddy: The Central Avenue Scene Vol. 3
DYEAR=2006
DGENRE=R&B
TTITLE0=Jake Porter and His Combo - TJ
TTITLE1=The Combonettes - Gotta Have You Baby
TTITLE2=Floyd Turnham and His Combo - No Parking After Eight
TTITLE3=Bill Watkins - Hey Little Girl
TTITLE4=Jack McVea and His Orchestra - Hoo Doo You Baby
TTITLE5=Tal Carter - Sadie Lee
TTITLE6=Gene Philips - Steelin' The Blues
TTITLE7=Jack McVea and His Orchestra - You Brought Me Heartaches
TTITLE8=Honey Coleman - Daddy, Why Did You Leave Me
TTITLE9=Joe Morris - Don't Let Nobody
TTITLE10=Sherman Booker (Brooks) and The Blue Notes - Cool Daddy's Blues
TTITLE11=Jake Porter and His Combo - Corn Pone Boogie
TTITLE12=Betty Hall Jones - Goin' Back To Town (I'm Gonna Leave You On
TTITLE12=The Outskirts Of Town)
TTITLE13=Floyd Turnham and His Combo - Alibi Baby
TTITLE14=Chuck Higgins and His Mellotones - Papa Charlie
TTITLE15=Peppermint Harris - Married Woman
TTITLE16=Joe Houston and His Combo - Shuckin' (Take 1)
TTITLE17=Jack McVea and His Orchestra - Don't Bruise The Feeling
TTITLE18=Robbin Ray - Allergic To A Broken Heart
TTITLE19=The Young Wolf - Worries And Troubles
TTITLE20=Floyd Turnham and His Combo - Turnham's Greens
TTITLE21=Margie - A Woman's Answer
TTITLE22=Chuck Hamilton and Candy Rivers - Please Be Kind
TTITLE23=Jack McVea and His Orchestra - Oh How I MIss You Tonight (Take 
TTITLE23=1)
EXTD=
EXTT0=
EXTT1=
EXTT2=
EXTT3=
EXTT4=
EXTT5=
EXTT6=
EXTT7=
EXTT8=
EXTT9=
EXTT10=
EXTT11=
EXTT12=
EXTT13=
EXTT14=
EXTT15=
EXTT16=
EXTT17=
EXTT18=
EXTT19=
EXTT20=
EXTT21=
EXTT22=
EXTT23=
PLAYORDER=
